<svg width="25" height="25" viewBox="0 0 25 25" fill="none" xmlns="http://www.w3.org/2000/svg">
    <path d="M3.75 25C3.0625 25 2.47396 24.7552 1.98438 24.2656C1.49479 23.776 1.25 23.1875 1.25 22.5V5C1.25 4.3125 1.49479 3.72396 1.98438 3.23438C2.47396 2.74479 3.0625 2.5 3.75 2.5H5V0H7.5V2.5H17.5V0H20V2.5H21.25C21.9375 2.5 22.526 2.74479 23.0156 3.23438C23.5052 3.72396 23.75 4.3125 23.75 5V22.5C23.75 23.1875 23.5052 23.776 23.0156 24.2656C22.526 24.7552 21.9375 25 21.25 25H3.75ZM3.75 22.5H21.25V10H3.75V22.5ZM3.75 7.5H21.25V5H3.75V7.5ZM3.75 7.5V5V7.5ZM12.5 15C12.1458 15 11.849 14.8802 11.6094 14.6406C11.3698 14.401 11.25 14.1042 11.25 13.75C11.25 13.3958 11.3698 13.099 11.6094 12.8594C11.849 12.6198 12.1458 12.5 12.5 12.5C12.8542 12.5 13.151 12.6198 13.3906 12.8594C13.6302 13.099 13.75 13.3958 13.75 13.75C13.75 14.1042 13.6302 14.401 13.3906 14.6406C13.151 14.8802 12.8542 15 12.5 15ZM7.5 15C7.14583 15 6.84896 14.8802 6.60938 14.6406C6.36979 14.401 6.25 14.1042 6.25 13.75C6.25 13.3958 6.36979 13.099 6.60938 12.8594C6.84896 12.6198 7.14583 12.5 7.5 12.5C7.85417 12.5 8.15104 12.6198 8.39062 12.8594C8.63021 13.099 8.75 13.3958 8.75 13.75C8.75 14.1042 8.63021 14.401 8.39062 14.6406C8.15104 14.8802 7.85417 15 7.5 15ZM17.5 15C17.1458 15 16.849 14.8802 16.6094 14.6406C16.3698 14.401 16.25 14.1042 16.25 13.75C16.25 13.3958 16.3698 13.099 16.6094 12.8594C16.849 12.6198 17.1458 12.5 17.5 12.5C17.8542 12.5 18.151 12.6198 18.3906 12.8594C18.6302 13.099 18.75 13.3958 18.75 13.75C18.75 14.1042 18.6302 14.401 18.3906 14.6406C18.151 14.8802 17.8542 15 17.5 15ZM12.5 20C12.1458 20 11.849 19.8802 11.6094 19.6406C11.3698 19.401 11.25 19.1042 11.25 18.75C11.25 18.3958 11.3698 18.099 11.6094 17.8594C11.849 17.6198 12.1458 17.5 12.5 17.5C12.8542 17.5 13.151 17.6198 13.3906 17.8594C13.6302 18.099 13.75 18.3958 13.75 18.75C13.75 19.1042 13.6302 19.401 13.3906 19.6406C13.151 19.8802 12.8542 20 12.5 20ZM7.5 20C7.14583 20 6.84896 19.8802 6.60938 19.6406C6.36979 19.401 6.25 19.1042 6.25 18.75C6.25 18.3958 6.36979 18.099 6.60938 17.8594C6.84896 17.6198 7.14583 17.5 7.5 17.5C7.85417 17.5 8.15104 17.6198 8.39062 17.8594C8.63021 18.099 8.75 18.3958 8.75 18.75C8.75 19.1042 8.63021 19.401 8.39062 19.6406C8.15104 19.8802 7.85417 20 7.5 20ZM17.5 20C17.1458 20 16.849 19.8802 16.6094 19.6406C16.3698 19.401 16.25 19.1042 16.25 18.75C16.25 18.3958 16.3698 18.099 16.6094 17.8594C16.849 17.6198 17.1458 17.5 17.5 17.5C17.8542 17.5 18.151 17.6198 18.3906 17.8594C18.6302 18.099 18.75 18.3958 18.75 18.75C18.75 19.1042 18.6302 19.401 18.3906 19.6406C18.151 19.8802 17.8542 20 17.5 20Z" fill="#895BF5"/>
</svg>
