<svg width="24" height="19" viewBox="0 0 24 19" fill="none" xmlns="http://www.w3.org/2000/svg">
    <path d="M8.75 8.16667L7.64167 10.5583L5.25 11.6667L7.64167 12.775L8.75 15.1667L9.85833 12.775L12.25 11.6667L9.85833 10.5583L8.75 8.16667ZM15.75 8.16667L14.9917 9.74167L13.4167 10.5L14.9917 11.2583L15.75 12.8333L16.5083 11.2583L18.0833 10.5L16.5083 9.74167L15.75 8.16667ZM2.33333 0L4.66667 4.66667H8.16667L5.83333 0H8.16667L10.5 4.66667H14L11.6667 0H14L16.3333 4.66667H19.8333L17.5 0H21C21.6417 0 22.191 0.228472 22.6479 0.685417C23.1049 1.14236 23.3333 1.69167 23.3333 2.33333V16.3333C23.3333 16.975 23.1049 17.5243 22.6479 17.9813C22.191 18.4382 21.6417 18.6667 21 18.6667H2.33333C1.69167 18.6667 1.14236 18.4382 0.685417 17.9813C0.228472 17.5243 0 16.975 0 16.3333V2.33333C0 1.69167 0.228472 1.14236 0.685417 0.685417C1.14236 0.228472 1.69167 0 2.33333 0ZM2.33333 7V16.3333H21V7H2.33333ZM2.33333 7V16.3333V7Z" fill="#6326F2"/>
</svg>
